# xmcd
#
# Track frame offsets:
#	183
#	12228
#	30240
#	43100
#	54018
#	70333
#	82755
#	94748
#	104285
#	117703
#	126658
#	139335
#	152658
#	167433
#	184693
#	193520
#
# Disc length: 2734 seconds
#
# Revision: 0
# Processed by: cddbd v1.5.2PL0 Copyright (c) Steve Scherf et al.
# Submitted via: EasyCDDAExtractor 11.0.2.1
#
DISCID=ce0aac10
DTITLE=Various Artist - Country and Western Festival
DYEAR=1900
DGENRE=
TTITLE0=E. Green and J. Grenne - Gimme 40 Acres
TTITLE1=R. Rogers - Dixieland Delight
TTITLE2=W. Raven - I Don't Wanna Talk It Over
TTITLE3=G.S. Paxton - One Day At A Time
TTITLE4=L. Anderson - Whatever Happened To Old Fashioned Love
TTITLE5=Noah - San Antonio Stroll
TTITLE6=B. Depiero and P. Mcmanus - American Made
TTITLE7=G. Jones and D. Edwards - Why Baby Why
TTITLE8=Robinson and Minch - Hello Love
TTITLE9=Rodriguez - Ridin' My Thumb To Mexico
TTITLE10=W. Jennings and W. Nelson - Good Hearted Woman
TTITLE11=Tillis and Bergman - Ruby, Don't Take Your Love To Town
TTITLE12=J.P. Jennings and M. Gray - The Closer You Get
TTITLE13=W. Jennings - I've Always Been Crazy
TTITLE14=Fell - Truck Drvin' Man
TTITLE15=J.S. Sherrill - Wild and Blue
EXTD=
EXTT0=
EXTT1=
EXTT2=
EXTT3=
EXTT4=
EXTT5=
EXTT6=
EXTT7=
EXTT8=
EXTT9=
EXTT10=
EXTT11=
EXTT12=
EXTT13=
EXTT14=
EXTT15=
PLAYORDER=
